# xmcd
#
# Track frame offsets:
# 150
# 14181
# 24507
# 40458
# 49724
# 65156
# 77108
# 81416
# 97254
# 104899
# 114844
# 137067
#
# Disc length: 1936 seconds
#
# Revision: 0
# Processed by: cddbd v1.5.2PL0 Copyright (c) Steve Scherf et al.
# Submitted via: Audion 3.0.2 (http://www.panic.com/audion/)
#
DISCID=b0078e0c
DTITLE=Los Patita de Perro - Los Pata Contra-Atacan
DYEAR=1900
DGENRE=
TTITLE0=Ponpín
TTITLE1=Las Tortillas
TTITLE2=Las mañanas patunas
TTITLE3=Ráscate la panza
TTITLE4=Mamá Soltera
TTITLE5=Motoperros
TTITLE6=Decimos no a las drogas
TTITLE7=Corazón de coca
TTITLE8=El catecismo
TTITLE9=Los Pata contra-atacan
TTITLE10=Los Artistas
TTITLE11=Voy a vomitar
EXTD=
EXTT0=
EXTT1=
EXTT2=
EXTT3=
EXTT4=
EXTT5=
EXTT6=
EXTT7=
EXTT8=
EXTT9=
EXTT10=
EXTT11=
PLAYORDER=
